<svg width="27" height="27" viewBox="0 0 27 27" fill="none" xmlns="http://www.w3.org/2000/svg">
<path d="M23.1 13.5176V25.5176H3.90002V13.5176" stroke="white" stroke-width="2" stroke-linecap="round" stroke-linejoin="round"/>
<path d="M25.5 7.51758H1.5V13.5176H25.5V7.51758Z" stroke="white" stroke-width="2" stroke-linecap="round" stroke-linejoin="round"/>
<path d="M13.5 25.5176V7.51758" stroke="white" stroke-width="2" stroke-linecap="round" stroke-linejoin="round"/>
<path d="M13.5 7.51758H8.09998C7.30433 7.51758 6.54126 7.20151 5.97866 6.6389C5.41605 6.07629 5.09998 5.31323 5.09998 4.51758C5.09998 3.72193 5.41605 2.95887 5.97866 2.39626C6.54126 1.83365 7.30433 1.51758 8.09998 1.51758C12.3 1.51758 13.5 7.51758 13.5 7.51758Z" stroke="white" stroke-width="2" stroke-linecap="round" stroke-linejoin="round"/>
<path d="M13.5 7.51758H18.9C19.6956 7.51758 20.4587 7.20151 21.0213 6.6389C21.5839 6.07629 21.9 5.31323 21.9 4.51758C21.9 3.72193 21.5839 2.95887 21.0213 2.39626C20.4587 1.83365 19.6956 1.51758 18.9 1.51758C14.7 1.51758 13.5 7.51758 13.5 7.51758Z" stroke="white" stroke-width="2" stroke-linecap="round" stroke-linejoin="round"/>
</svg>
