<svg width="22" height="66" viewBox="0 0 22 66" fill="none" xmlns="http://www.w3.org/2000/svg">
<path fill-rule="evenodd" clip-rule="evenodd" d="M13.9092 0.354954C12.9989 -0.213877 8.27562 -0.0121272 7.08481 0.354954C6.76689 1.02376 7.40044 1.83241 8.02963 2.63551C8.49213 3.22584 8.95227 3.81317 9.03046 4.33975C9.16738 5.26195 8.79782 5.7427 8.49506 6.13656C8.21646 6.499 7.99441 6.78786 8.27562 7.27941C8.52318 7.71215 9.35264 7.94904 10.25 7.99262V9H1C1 9 2.6656 10.8477 4.08878 11H9.5V36.0031C9.14353 36.0091 8.81085 36.0259 8.51192 36.07C7.95186 35.2865 7.09822 34.2115 6.62708 34.2065C5.88542 34.1986 5.44893 34.4069 5.49321 35.1116C5.52132 35.5589 6.39864 36.5869 7.03599 37.2783C7.01228 37.4103 7 37.5558 7 37.7163C7 37.8293 7.00609 37.9411 7.01797 38.0511C6.43226 38.15 6 38.5984 6 39.5402C6 40.8512 6.38788 42.6727 7.30667 44.0475C3.59551 49.7298 -1.50441 58.5798 0.420397 61.725C1.2975 63.1582 2.89401 65.6044 6.00195 65.9724C6.62212 65.9724 7.24732 65.9662 7.87252 65.96C9.12293 65.9475 10.3733 65.935 11.5835 65.9724C12.9209 66.0138 14.1288 66 15.3368 65.9862H15.3369C15.9409 65.9793 16.5449 65.9724 17.165 65.9724C19.8398 65.2874 20.9657 63.6666 21.8163 61.725C23.0519 58.9046 17.7835 49.81 14.1037 44.0171C15.7706 42.0128 16.6308 39.1047 15.4594 38.3369C15.317 38.2436 15.1831 38.1719 15.0558 38.1192C15.6871 37.4433 16.4726 36.5246 16.5003 36.1111C16.5469 35.4163 16.1054 35.212 15.3544 35.2213C14.9516 35.2264 14.2709 35.9836 13.7262 36.6849C13.4675 36.3245 13.0392 36.153 12.5 36.0718V11H18.2494C19.6567 10.5894 21 9 21 9H11.75V7.88042C12.3991 7.73991 12.904 7.47581 12.9989 7.08947C13.1302 6.55499 12.8388 6.2406 12.5288 5.90623C12.177 5.52677 11.8014 5.12156 11.9926 4.33975C12.1606 3.65317 12.6755 2.92479 13.1417 2.26524C13.7125 1.45757 14.2105 0.753105 13.9092 0.354954Z" fill="white"/>
</svg>
