<svg width="30" height="64" viewBox="0 0 30 64" fill="none" xmlns="http://www.w3.org/2000/svg">
<path d="M15.5 11C18.5376 11 21 8.53757 21 5.5C21 2.46243 18.5376 0 15.5 0C12.4624 0 10 2.46243 10 5.5C10 8.53757 12.4624 11 15.5 11Z" fill="white"/>
<path d="M29.8636 35.1L26.0455 18.2417C25.9091 17.675 25.6364 17.1083 25.2273 16.6833C23.5909 15.2667 21.6818 14.275 19.5 13.5667C18 13.2833 16.5 13 15 13C13.5 13 12 13.2833 10.5 13.7083C8.31818 14.275 6.40909 15.4083 4.77273 16.825C4.36364 17.25 4.09091 17.8167 3.95455 18.3833L0.136364 35.2417C0.136364 35.3833 0 35.6667 0 35.95C0 37.5083 1.22727 38.7833 2.72727 38.7833C3.95455 38.7833 5.04545 37.7917 5.31818 36.6583L8.18182 24.3333V64H13.6364V38.5H16.3636V64H21.8182V24.1917L24.6818 36.5167C24.9545 37.65 26.0455 38.6417 27.2727 38.6417C28.7727 38.6417 30 37.3667 30 35.8083C30 35.525 29.8636 35.2417 29.8636 35.1Z" fill="white"/>
</svg>
