<svg width="25" height="27" viewBox="0 0 25 27" fill="none" xmlns="http://www.w3.org/2000/svg">
<path d="M17.5571 1H7.44286C3.60842 1 0.5 4.10842 0.5 7.94286V19.0923C0.5 22.9267 3.60842 26.0352 7.44286 26.0352H17.5571C21.3916 26.0352 24.5 22.9267 24.5 19.0923V7.94286C24.5 4.10842 21.3916 1 17.5571 1Z" stroke="white" stroke-linecap="round"/>
<path d="M12.4999 19.6327C15.8792 19.6327 18.6186 16.8933 18.6186 13.5141C18.6186 10.1348 15.8792 7.39539 12.4999 7.39539C9.12065 7.39539 6.38123 10.1348 6.38123 13.5141C6.38123 16.8933 9.12065 19.6327 12.4999 19.6327Z" stroke="white" stroke-linecap="round"/>
<path d="M19.8253 6.30121C20.306 6.30121 20.6956 5.91155 20.6956 5.43088C20.6956 4.95021 20.306 4.56055 19.8253 4.56055C19.3446 4.56055 18.955 4.95021 18.955 5.43088C18.955 5.91155 19.3446 6.30121 19.8253 6.30121Z" stroke="white"/>
</svg>
