<svg width="30" height="20" viewBox="0 0 30 20" fill="none" xmlns="http://www.w3.org/2000/svg">
    <path d="M2.16241 1.08602L6.43167 1.1139C6.68933 1.1139 6.91857 1.28299 7.00476 1.53571M2.16241 1.08602C1.40487 1.13284 0.764369 1.42826 0.56457 2.13203H1.00092V2.57496M2.16241 1.08602L2.15914 1.58601L2.17689 1.58613M2.16241 1.08602L2.19325 1.58507C2.18778 1.58541 2.18232 1.58576 2.17689 1.58613M1.00092 2.57496C1.00031 2.59357 1 2.61259 1 2.63203H0.500917C0.500917 2.91264 0.557767 3.22202 0.643959 3.44686C3.76705 12.0745 8.2087 18.9888 13.1657 18.9888H15.9742M1.00092 2.57496V2.63203C1.00092 2.85634 1.04822 3.10456 1.11083 3.26789L1.11419 3.27664L1.1141 3.27667C2.66688 7.56625 4.53759 11.4003 6.61607 14.1518C8.70832 16.9215 10.9284 18.4888 13.1657 18.4888H15.9569M1.00092 2.57496C1.01295 2.20638 1.14201 1.99889 1.30367 1.86684C1.49086 1.71392 1.7842 1.61264 2.17689 1.58613M15.9742 18.9888L16.3759 18.9609M15.9742 18.9888V18.4888H15.9569M15.9742 18.9888L15.9396 18.49L15.9569 18.4888M16.3759 18.9609C17.0636 18.8197 17.4368 18.2864 17.5798 17.7801M16.3759 18.9609L16.3412 18.4621L16.3048 18.4646M16.3759 18.9609L16.2753 18.4711C16.2852 18.4691 16.2951 18.4669 16.3048 18.4646M17.5798 17.7801L17.666 17.3025C17.7569 16.9212 17.8417 16.5397 17.926 16.1607C17.9886 15.8793 18.0509 15.5993 18.1151 15.3219C18.1149 15.3217 18.1147 15.3215 18.1145 15.3214C18.0925 15.3025 18.0746 15.2909 18.0047 15.2454C17.9933 15.238 17.9804 15.2296 17.966 15.2202L18.2391 14.8014L18.7246 14.921C18.7063 14.995 18.6885 15.0687 18.6709 15.142L19.0291 14.8517C19.0305 14.8534 19.0319 14.8551 19.0333 14.8568M17.5798 17.7801L17.0986 17.6441C17.0966 17.6513 17.0945 17.6585 17.0924 17.6657M17.5798 17.7801L17.0878 17.6912L17.0924 17.6657M19.0333 14.8568C19.0347 14.8586 19.0361 14.8604 19.0375 14.8623L18.6705 15.1436C18.6668 15.159 18.6632 15.1744 18.6595 15.1897C18.9252 15.5176 19.1908 15.8479 19.4572 16.1792C20.0757 16.9483 20.6983 17.7225 21.3347 18.4834M19.0333 14.8568C18.9403 14.7359 18.8596 14.643 18.7653 14.5622C18.6886 14.4964 18.6078 14.4443 18.5425 14.4021C18.532 14.3954 18.5218 14.3888 18.5122 14.3825L18.0823 14.1022M19.0333 14.8568C19.3064 15.1937 19.5783 15.5319 19.8504 15.8702C20.462 16.6308 21.0743 17.3922 21.7018 18.1429M21.3347 18.4834C21.6208 18.7649 22.0224 19.0176 22.5093 19.0176C22.5524 19.0176 22.5881 19.0106 22.6239 19.0036C22.6596 18.9967 22.6954 18.9897 22.7385 18.9897H27.094M21.3347 18.4834L21.6854 18.127C21.6908 18.1323 21.6963 18.1376 21.7018 18.1429M21.3347 18.4834L21.7182 18.1626C21.7127 18.156 21.7072 18.1495 21.7018 18.1429M27.094 18.9897L27.5808 18.9618M27.094 18.9897L27.0654 18.4905L27.0797 18.4897M27.094 18.9897V18.4897H27.0797M27.5808 18.9618C28.44 18.8773 29.3285 18.3431 29.3285 17.4158C29.3285 17.1064 29.2139 16.7413 28.9847 16.4319M27.5808 18.9618L27.5319 18.4642C27.5351 18.4639 27.5383 18.4636 27.5415 18.4633M27.5808 18.9618L27.5523 18.4626L27.5415 18.4633M28.9847 16.4319L24.8007 11.2605M28.9847 16.4319L28.596 16.7464L28.5887 16.7374M28.9847 16.4319L28.5829 16.7296C28.5849 16.7322 28.5868 16.7348 28.5887 16.7374M24.8007 11.2605C24.6576 11.0915 24.5715 10.9233 24.5715 10.7542C24.5715 10.5572 24.6567 10.3603 24.8291 10.1354M24.8007 11.2605L24.419 11.5835C24.4177 11.582 24.4165 11.5805 24.4152 11.5791M24.8007 11.2605L24.412 11.575L24.4152 11.5791M24.8291 10.1354C25.1826 9.61525 25.6712 9.01561 26.2009 8.36557C27.5605 6.69709 29.1905 4.69665 29.5 2.85598M24.8291 10.1354L24.4156 9.85442C24.4181 9.85062 24.4207 9.84682 24.4233 9.84301M24.8291 10.1354L24.4323 9.83122C24.4293 9.83514 24.4263 9.83907 24.4233 9.84301M29.5 2.85598V2.65902M29.5 2.85598H29V2.81288M29.5 2.85598L29.0069 2.77307C29.0047 2.78633 29.0024 2.7996 29 2.81288M29.5 2.65902C29.4934 2.61992 29.4914 2.56735 29.489 2.50476C29.481 2.29671 29.4688 1.97794 29.2708 1.67511C29.1277 1.42239 28.8123 1.14089 28.3823 1.14089L28.0952 1.11301M29.5 2.65902L29.0069 2.74191C29.0042 2.7257 29.0019 2.70881 29 2.69175M29.5 2.65902H29V2.69175M28.0952 1.11301H23.6536C23.539 1.11301 23.4537 1.14179 23.3959 1.16967C23.0521 1.28209 22.2498 1.70299 21.9343 2.32175C21.9268 2.33608 21.9193 2.34856 21.9124 2.36016C21.8923 2.39374 21.8766 2.41995 21.8766 2.46205C21.6473 3.75534 19.9565 6.20072 18.4665 8.25217M28.0952 1.11301V1.61301H28.071M28.0952 1.11301L28.0469 1.61066L28.071 1.61301M18.4665 8.25217C18.2372 8.61821 17.9502 8.75851 17.721 8.75851C17.578 8.75851 17.4634 8.70275 17.3487 8.61821V2.23811C17.3487 0.579682 16.1457 0.0175781 14.8272 0.0175781M18.4665 8.25217L18.8902 8.51755C18.887 8.52274 18.8837 8.5279 18.8805 8.53303M18.4665 8.25217L18.871 8.54601C18.8742 8.54168 18.8773 8.53736 18.8805 8.53303M14.8272 0.0175781L13.2225 0.0454586C11.4464 0.0454586 10.1856 0.663323 9.784 1.87207C9.75557 1.92873 9.75557 1.98449 9.75557 2.04115C9.75557 2.32265 9.95638 2.60325 10.2718 2.65991M14.8272 0.0175781L14.8358 0.517503L14.8314 0.51758M14.8272 0.0175781V0.517578C14.8286 0.517578 14.83 0.517579 14.8314 0.51758M10.2718 2.65991C11.0741 2.77234 11.418 2.88476 11.418 3.58716L11.3896 8.44913L11.3034 8.75851C11.2172 8.89881 11.1026 8.95547 10.9879 8.95547C10.8449 8.95547 10.7019 8.87183 10.6157 8.70275M10.2718 2.65991L10.3602 2.16779C10.3582 2.16743 10.3562 2.16703 10.3543 2.16659M10.2718 2.65991L10.3412 2.16475C10.3456 2.16536 10.3499 2.16598 10.3543 2.16659M10.6157 8.70275C9.18249 6.53888 7.97946 4.62773 7.00476 1.53571M10.6157 8.70275L10.1702 8.92983C10.1752 8.9396 10.1803 8.94927 10.1855 8.95883M10.6157 8.70275L10.1988 8.97885C10.1944 8.97217 10.19 8.9655 10.1855 8.95883M7.00476 1.53571L6.52789 1.68603C6.52867 1.68851 6.52945 1.69098 6.53023 1.69345M7.00476 1.53571L6.53152 1.69711C6.5311 1.69587 6.53067 1.69466 6.53023 1.69345M6.53023 1.69345C7.52279 4.83906 8.75154 6.79311 10.1855 8.95883M6.53023 1.69345C6.50885 1.63523 6.46359 1.6139 6.43167 1.6139H6.42841L6.42841 1.61389L2.17689 1.58613M10.1855 8.95883C10.3502 9.25875 10.646 9.45547 10.9879 9.45547C11.2935 9.45547 11.5616 9.29339 11.7294 9.02024L11.7662 8.96038L11.785 8.8927L11.8712 8.58332L11.8892 8.51891L11.8895 8.45205L11.918 3.59008H11.918V3.58716C11.918 3.15268 11.8066 2.75373 11.4319 2.49225C11.1335 2.28408 10.7258 2.21882 10.3543 2.16659M10.3543 2.16659C10.3267 2.16032 10.3043 2.14566 10.2864 2.12315C10.265 2.09637 10.2556 2.06499 10.2556 2.04115C10.2556 2.04024 10.2556 2.03936 10.2556 2.03851M10.2556 2.03851L10.2585 2.02973C10.289 1.93804 10.3264 1.84967 10.3707 1.76489M10.2556 2.03851C10.2556 2.03469 10.2556 2.03149 10.2556 2.02876C10.2556 2.02178 10.2557 2.01786 10.2558 2.01456C10.2558 2.01341 10.2558 2.01281 10.2558 2.01269C10.2559 2.01241 10.2557 2.01494 10.2552 2.01932C10.2549 2.02171 10.2544 2.02469 10.2538 2.02818C10.2532 2.03194 10.2523 2.03629 10.2511 2.04115C10.2504 2.04423 10.2495 2.04751 10.2486 2.05097C10.2445 2.06521 10.2388 2.08064 10.2309 2.09628L10.2471 2.064L10.2547 2.04115L10.2556 2.03851ZM10.3707 1.76489L11.1478 2.12955C11.4581 2.27515 11.6876 2.41821 11.8471 2.61795C11.9966 2.80525 12.121 3.08952 12.121 3.58806V8.51101M10.3707 1.76489L10.338 1.74951L10.4022 1.70734M10.3707 1.76489C10.3809 1.74552 10.3914 1.72633 10.4022 1.70734M12.121 8.51101C12.049 9.21379 11.4512 9.66512 10.9017 9.66512C10.5593 9.66512 10.2278 9.47286 10.018 9.10341L10.0085 9.08666L9.99769 9.07068C8.72027 7.17701 7.65553 5.41669 6.72989 2.8858M12.121 8.51101C12.1217 8.50434 12.1223 8.49765 12.1229 8.49094L12.621 8.53457M12.121 8.51101V8.53457H12.621M6.72989 2.8858L6.47321 2.15737L6.35648 1.82613L6.00529 1.82357L2.19449 1.79568L2.19449 1.79567H2.19083C2.06398 1.79567 1.94757 1.79708 1.8527 1.80637C1.7779 1.81369 1.60897 1.83242 1.46244 1.94555C1.27054 2.09372 1.23917 2.29681 1.2326 2.39165C1.22949 2.43652 1.23047 2.47959 1.23102 2.50367C1.23118 2.51079 1.23134 2.51729 1.23149 2.52337C1.23198 2.5432 1.23236 2.55866 1.23236 2.57717C1.23236 2.78701 1.26577 3.04665 1.30072 3.21375L1.30887 3.25271L1.32308 3.2899L1.92459 4.86378L1.92457 4.86379L1.92645 4.86858C3.49814 8.85738 5.28257 12.189 7.16308 14.5331C9.02804 16.8579 11.0694 18.3106 13.1657 18.3106H16.0311C16.2405 18.3106 16.4365 18.2443 16.593 18.1046C16.7371 17.976 16.8101 17.8183 16.851 17.7006C16.8918 17.583 16.9145 17.462 16.9297 17.3801L16.9315 17.3699C16.9485 17.2785 16.957 17.2329 16.9677 17.198L16.9735 17.1787L16.9779 17.1591L17.5113 14.7368M6.72989 2.8858L6.73087 2.88856L6.25929 3.05474M6.72989 2.8858C6.72956 2.88488 6.72922 2.88396 6.72889 2.88304L6.25929 3.05474M17.5113 14.7368C17.5157 14.727 17.52 14.7174 17.5243 14.7081C17.6296 14.4746 17.6785 14.3661 17.786 14.2607C17.8158 14.2314 17.8457 14.2068 17.8757 14.1862M17.5113 14.7368C17.5043 14.7523 17.4971 14.7683 17.4896 14.7848L17.0342 14.5783M17.5113 14.7368L17.5225 14.6858L17.0342 14.5783M17.8757 14.1862L17.7536 14.6817C17.645 15.1226 17.5396 15.5955 17.4349 16.0657C17.3499 16.4473 17.2653 16.8272 17.1796 17.1866L17.1764 17.2001L17.1739 17.2137L17.0924 17.6657M17.8757 14.1862L17.9222 13.9977L18.0823 14.1022M17.8757 14.1862C17.9436 14.1396 18.012 14.1138 18.0823 14.1022M17.0924 17.6657C16.9815 18.0371 16.7277 18.3655 16.3048 18.4646M16.3048 18.4646L15.9569 18.4888M18.0823 14.1022C18.1149 14.0968 18.1478 14.0944 18.1813 14.0944C18.3252 14.0944 18.4961 14.1513 18.6877 14.2747C18.8743 14.395 19.0521 14.5604 19.202 14.7307M19.202 14.7307L19.1952 14.7221L19.5851 14.4092M19.202 14.7307L21.6158 17.7392M19.202 14.7307C19.2043 14.7333 19.2066 14.7359 19.2088 14.7385L19.5851 14.4092M21.7018 18.1429C21.9311 18.3632 22.2055 18.5154 22.503 18.5176M22.503 18.5176C22.501 18.5179 22.5002 18.518 22.5002 18.518C22.5002 18.5181 22.5044 18.5176 22.5093 18.5176C22.5072 18.5176 22.5051 18.5176 22.503 18.5176ZM22.503 18.5176C22.5066 18.5169 22.5144 18.5156 22.5282 18.5129L22.5336 18.5118C22.57 18.5047 22.6462 18.4897 22.7385 18.4897H27.0797M27.0797 18.4897L27.5415 18.4633M27.5415 18.4633C27.8903 18.4273 28.2278 18.3012 28.4671 18.1123C28.6992 17.9292 28.8285 17.6996 28.8285 17.4158C28.8285 17.2219 28.7538 16.9638 28.5887 16.7374M28.5887 16.7374L24.4152 11.5791M24.4152 11.5791C24.2413 11.3724 24.0715 11.0931 24.0715 10.7542C24.0715 10.4077 24.222 10.1085 24.4233 9.84301M24.4233 9.84301C24.7517 9.36135 25.1848 8.82202 25.6425 8.25943C25.6991 8.18983 25.7562 8.11978 25.8136 8.0493C26.2291 7.53944 26.6629 7.00706 27.0769 6.45806C28.0202 5.20714 28.7958 3.95075 29 2.81288M29 2.81288V2.69175M29 2.69175C28.9932 2.63131 28.991 2.5687 28.9894 2.52641C28.9892 2.52003 28.989 2.51412 28.9888 2.50874C28.9862 2.44085 28.9831 2.37788 28.9751 2.31228C28.9593 2.18346 28.9257 2.06098 28.8523 1.9488L28.8435 1.93537L28.8356 1.9214C28.7542 1.77745 28.583 1.64089 28.3823 1.64089H28.358L28.3339 1.63854L28.071 1.61301M28.071 1.61301H23.6536C23.6387 1.61301 23.6293 1.6148 23.6243 1.61605C23.6192 1.61733 23.6157 1.61879 23.6133 1.61996L23.5831 1.63451L23.5513 1.64491C23.4296 1.68472 23.1864 1.79509 22.9398 1.96645C22.6901 2.13992 22.4848 2.34285 22.3798 2.54884L22.3769 2.5546L22.3768 2.55458C22.3722 2.56334 22.3677 2.57162 22.3634 2.57921M22.3634 2.57921C22.3653 2.56954 22.367 2.55991 22.3687 2.55032C22.3688 2.54999 22.3688 2.54965 22.3689 2.54932L22.3699 2.54378L22.3766 2.50602V2.46205C22.3766 2.48744 22.3737 2.51469 22.3672 2.54241C22.3667 2.54451 22.3662 2.54661 22.3657 2.54871C22.3657 2.54872 22.3657 2.54873 22.3657 2.54874C22.3651 2.55103 22.3645 2.55333 22.3639 2.55562C22.3554 2.58668 22.3448 2.6091 22.3394 2.61961C22.3378 2.62278 22.3366 2.62503 22.336 2.62594L22.3419 2.61611L22.3425 2.61504C22.3472 2.60732 22.3547 2.59472 22.3634 2.57921ZM22.3634 2.57921C22.2214 3.32912 21.695 4.32604 21.0694 5.33608C20.4242 6.37769 19.6239 7.50917 18.8805 8.53303M18.8805 8.53303C18.583 8.99884 18.1567 9.25851 17.721 9.25851C17.43 9.25851 17.2122 9.13878 17.0519 9.0206L16.8487 8.87071V8.61821V2.23811C16.8487 1.54509 16.6061 1.14776 16.2831 0.906491C15.9369 0.647815 15.4294 0.518187 14.8314 0.51758M14.8314 0.51758L13.2312 0.545383L13.2225 0.545534V0.545459C11.7418 0.545459 10.8123 0.990921 10.4022 1.70734M10.4022 1.70734L11.086 1.25883C11.6255 0.904914 12.2488 0.756007 13.2137 0.755109M13.2137 0.755109L13.2052 0.755406L13.2225 1.25511M13.2137 0.755109L14.8382 0.698746L14.8469 0.698446H14.8556C15.3503 0.698446 15.8239 0.765767 16.169 1.0448C16.5446 1.34839 16.6448 1.79429 16.6448 2.23811V8.70275C16.6448 8.89455 16.7377 9.05542 16.9338 9.18827C17.14 9.328 17.4329 9.4115 17.721 9.4115C18.073 9.4115 18.4279 9.2967 18.7555 9.00983C19.3928 8.16188 20.1457 7.1411 20.8211 6.11341C21.5086 5.0673 22.0969 4.04196 22.4069 3.20016M13.2137 0.755109C13.2167 0.755107 13.2196 0.755105 13.2225 0.755105V1.25511M13.2225 1.25511C12.6682 1.25511 12.2603 1.30638 11.9296 1.40914C11.8085 1.33868 11.6877 1.27828 11.5726 1.22427L11.3602 1.67691L11.6345 2.09498C11.7071 2.04736 11.7844 2.00372 11.8708 1.96475C12.3004 2.26928 12.621 2.72663 12.621 3.58806V8.53457M13.2225 1.25511L14.8556 1.19845C15.8009 1.19845 16.1448 1.47905 16.1448 2.23811V8.70275C16.1448 9.4897 16.9755 9.9115 17.721 9.9115C18.2079 9.9115 18.6957 9.74332 19.1258 9.3494L22.4069 3.20016M12.621 8.53457C12.5348 9.51848 11.7041 10.1651 10.9017 10.1651C10.3571 10.1651 9.87019 9.85574 9.58319 9.3503C8.29397 7.43914 7.20465 5.64041 6.25929 3.05474M6.25929 3.05474L6.00163 2.32355L2.19083 2.29567C1.72599 2.29567 1.72655 2.31828 1.73127 2.50794C1.73179 2.52891 1.73236 2.55192 1.73236 2.57717C1.73236 2.74625 1.76079 2.9711 1.79013 3.1114L2.39164 4.68529C5.51473 12.6114 9.44106 17.8106 13.1657 17.8106H16.0311C16.3419 17.8106 16.3946 17.5246 16.4425 17.2648C16.4565 17.1889 16.4701 17.1152 16.4896 17.0516L17.0342 14.5783M17.0342 14.5783C17.047 14.5501 17.0595 14.5222 17.0718 14.4947C17.1695 14.2757 17.2575 14.0787 17.4358 13.9038C17.6651 13.6789 17.9227 13.5944 18.1813 13.5944C18.726 13.5944 19.2413 14.0162 19.5851 14.4092M19.5851 14.4092L22.0205 17.4446M21.6158 17.7392C21.6109 17.7318 21.606 17.7243 21.6011 17.7168L22.0205 17.4446M21.6158 17.7392C21.8744 18.127 22.1792 18.3097 22.5074 18.3097H27.2352C27.5052 18.3097 27.7966 18.2698 28.0406 18.1611C28.2764 18.0561 28.5952 17.8179 28.5952 17.3879C28.5952 17.2146 28.5428 17.0013 28.4219 16.8243L28.4098 16.8067L28.3963 16.7901L24.242 11.7037L23.8544 12.0196M21.6158 17.7392L21.6305 17.7575L22.0205 17.4446M22.0205 17.4446C22.2213 17.754 22.3928 17.8097 22.5074 17.8097H27.2352C27.6936 17.8097 28.0952 17.6694 28.0952 17.3879C28.0952 17.3034 28.0668 17.191 28.0091 17.1064L23.8544 12.0196M23.8544 12.0196C23.5106 11.5978 23.3675 11.176 23.3675 10.7551C23.3675 10.3054 23.5399 9.85574 23.826 9.46182L23.8544 12.0196ZM22.4069 3.20016L22.5763 2.67545L22.6026 2.59392L22.6545 2.5258C22.8862 2.22199 23.1927 1.99996 23.5574 1.85709L23.6454 1.82265H23.7398H28.2383H28.6451L28.7278 2.22092C28.7474 2.31501 28.7569 2.39813 28.7639 2.46015L28.7643 2.46327C28.7718 2.52898 28.7768 2.57142 28.7861 2.61729L28.8079 2.72474L28.7827 2.83145L28.6965 3.19659L28.6936 3.20868L28.6902 3.22061C28.3595 4.36416 27.5058 5.5849 26.6378 6.69566C26.3061 7.12015 25.9735 7.52737 25.6563 7.91593C25.1122 8.58217 24.613 9.19353 24.2395 9.74293L24.2351 9.74935L24.2306 9.75563C23.9921 10.0839 23.8675 10.4331 23.8675 10.7551C23.8675 11.05 23.9637 11.3622 24.2417 11.7033L22.4069 3.20016Z"
          stroke="white"/>
</svg>
